<?xml version="1.0" encoding="UTF-8" standalone="no"?>
<!-- Created with Inkscape (http://www.inkscape.org/) -->

<svg
   width="59.024185mm"
   height="39.439571mm"
   viewBox="0 0 59.024185 39.439571"
   version="1.1"
   id="svg1"
   inkscape:version="1.4.3 (0d15f75, 2025-12-25)"
   sodipodi:docname="filing-square.svg"
   xmlns:inkscape="http://www.inkscape.org/namespaces/inkscape"
   xmlns:sodipodi="http://sodipodi.sourceforge.net/DTD/sodipodi-0.dtd"
   xmlns="http://www.w3.org/2000/svg"
   xmlns:svg="http://www.w3.org/2000/svg">
  <sodipodi:namedview
     id="namedview1"
     pagecolor="#ffffff"
     bordercolor="#000000"
     borderopacity="0.25"
     inkscape:showpageshadow="2"
     inkscape:pageopacity="0.0"
     inkscape:pagecheckerboard="0"
     inkscape:deskcolor="#d1d1d1"
     inkscape:document-units="mm"
     inkscape:zoom="2.14"
     inkscape:cx="145.56075"
     inkscape:cy="141.35514"
     inkscape:window-width="1280"
     inkscape:window-height="953"
     inkscape:window-x="-8"
     inkscape:window-y="-8"
     inkscape:window-maximized="1"
     inkscape:current-layer="layer1" />
  <defs
     id="defs1" />
  <g
     inkscape:label="Layer 1"
     inkscape:groupmode="layer"
     id="layer1"
     transform="translate(-23.835558,-26.703077)">
    <g
       id="g5">
      <rect
         style="fill:#b4b4b4;stroke:#444444;stroke-width:0.25"
         id="rect2"
         width="2.5177588"
         height="9.4786215"
         x="26.721869"
         y="35.100521" />
      <rect
         style="fill:#444444;stroke:#444444;stroke-width:0.225406"
         id="rect3"
         width="14.686836"
         height="2.7645078"
         x="29.466684"
         y="35.115723" />
    </g>
    <path
       style="fill:none;stroke:#1f4e79;stroke-width:0.25"
       d="M 29.620694,58.500869 V 38.210693 H 40.39522 v 20.142072"
       id="path3" />
    <path
       style="fill:none;stroke:#1f4e79;stroke-width:0.1;stroke-dasharray:none"
       d="m 29.657719,58.424958 0.925645,-0.664607 1.221855,1.184828 1.666164,-1.332931 1.999397,1.25888 0.777543,-0.740518 1.25888,1.147802 1.51806,-1.925345 1.351444,0.888621"
       id="path4"
       sodipodi:nodetypes="ccccccccc" />
    <text
       xml:space="preserve"
       style="font-size:3.88056px;font-family:Carlito;-inkscape-font-specification:Carlito;writing-mode:lr-tb;direction:ltr;fill:#222222;stroke:none;stroke-width:0.1;stroke-dasharray:none"
       x="25.770004"
       y="31.397932"
       id="text5"><tspan
         sodipodi:role="line"
         id="tspan5"
         style="font-size:3.88056px;fill:#222222;stroke:none;stroke-width:0.1"
         x="25.770004"
         y="31.397932">Perpendicular</tspan></text>
    <path
       style="fill:#dceaf7;stroke:#1f4e79;stroke-width:0.0373995;stroke-dasharray:none"
       d="m 139.33897,221.49827 -2.33935,-2.13489 -1.4392,1.368 c -0.79156,0.7524 -1.47266,1.37985 -1.51355,1.39432 -0.0409,0.0145 -1.73879,-1.02081 -3.7731,-2.30065 -2.03431,-1.27983 -3.73635,-2.32697 -3.78232,-2.32697 -0.046,0 -1.42962,1.07547 -3.07479,2.38993 -1.64516,1.31446 -3.03906,2.42666 -3.09757,2.47156 -0.0666,0.0512 -0.96316,-0.75252 -2.40031,-2.15171 l -2.29394,-2.23335 -1.524,1.09765 c -0.8382,0.60371 -1.55034,1.09765 -1.58253,1.09765 -0.0322,0 -0.0585,-16.92092 -0.0585,-37.60204 v -37.60203 h 19.84002 19.84002 v 37.26377 37.26377 l -0.37107,-0.22726 c -0.20409,-0.12499 -1.23549,-0.79785 -2.29199,-1.49525 -1.05651,-0.69739 -1.96935,-1.25237 -2.02854,-1.23329 -0.0592,0.0191 -1.35441,1.6211 -2.87828,3.56005 -1.52387,1.93895 -2.79789,3.52767 -2.83114,3.53049 -0.0333,0.003 -1.11318,-0.95557 -2.39982,-2.12975 z"
       id="path5"
       transform="scale(0.26458333)" />
    <g
       id="g5-8"
       transform="translate(29.497335,0.25130094)">
      <rect
         style="fill:#b4b4b4;stroke:#444444;stroke-width:0.25"
         id="rect2-2"
         width="2.5177588"
         height="9.4786215"
         x="26.721869"
         y="35.100521" />
      <rect
         style="fill:#444444;stroke:#444444;stroke-width:0.225406"
         id="rect3-4"
         width="14.686836"
         height="2.7645078"
         x="29.466684"
         y="35.115723" />
    </g>
    <path
       style="fill:none;stroke:#1f4e79;stroke-width:0.25"
       d="M 59.118029,58.75217 V 40.128158 l 10.774526,-1.666164 v 20.142072"
       id="path3-5"
       sodipodi:nodetypes="cccc" />
    <path
       style="fill:none;stroke:#1f4e79;stroke-width:0.1;stroke-dasharray:none"
       d="m 59.155054,58.676259 0.925645,-0.664607 1.221855,1.184828 1.666164,-1.332931 1.999397,1.25888 0.777543,-0.740518 1.25888,1.147802 1.51806,-1.925345 1.351444,0.888621"
       id="path4-5"
       sodipodi:nodetypes="ccccccccc" />
    <text
       xml:space="preserve"
       style="font-size:3.88056px;font-family:Carlito;-inkscape-font-specification:Carlito;writing-mode:lr-tb;direction:ltr;fill:#222222;stroke:none;stroke-width:0.1;stroke-dasharray:none"
       x="53.679836"
       y="31.649233"
       id="text5-1"><tspan
         sodipodi:role="line"
         id="tspan5-7"
         style="font-size:3.88056px;fill:#222222;stroke:none;stroke-width:0.1"
         x="53.679836"
         y="31.649233">No Perpendicular</tspan></text>
    <path
       style="fill:#dceaf7;stroke:#444444;stroke-width:0.0279882;stroke-dasharray:none"
       d="m 66.385129,58.835998 c -0.684917,-0.619159 -0.668253,-0.617333 -1.144784,-0.125502 l -0.286213,0.295402 -0.992274,-0.628925 -0.992278,-0.628923 -0.831985,0.667851 -0.831985,0.667853 -0.605128,-0.59876 -0.605131,-0.598763 -0.376227,0.270294 c -0.206923,0.148661 -0.392811,0.270293 -0.413081,0.270293 -0.02027,0 -0.03685,-4.081468 -0.03685,-9.069928 v -9.069927 l 0.166616,-0.03757 c 0.09164,-0.02066 2.349291,-0.372046 5.017005,-0.780851 2.667712,-0.408808 4.942028,-0.761741 5.054032,-0.784297 l 0.203641,-0.04101 v 9.819994 9.819995 L 69.149745,57.90484 c -0.308406,-0.20811 -0.602257,-0.362452 -0.653002,-0.342979 -0.05074,0.01947 -0.386995,0.413663 -0.747226,0.875977 -0.36023,0.462315 -0.676494,0.865862 -0.702807,0.896771 -0.0263,0.03091 -0.324025,-0.193463 -0.661577,-0.498613 z"
       id="path6" />
    <text
       xml:space="preserve"
       style="font-size:3.88056px;font-family:Carlito;-inkscape-font-specification:Carlito;writing-mode:lr-tb;direction:ltr;fill:#c65f00;stroke:none;stroke-width:0.1;stroke-dasharray:none"
       x="27.200155"
       y="64.167633"
       id="text6"><tspan
         sodipodi:role="line"
         id="tspan6"
         style="fill:#c65f00;stroke:none;stroke-width:0.1"
         x="27.200155"
         y="64.167633">Tolerancia de la luz: ~ 0,1 mm</tspan></text>
  </g>
</svg>
