<?xml version="1.0" encoding="UTF-8" standalone="no"?>
<!-- Created with Inkscape (http://www.inkscape.org/) -->

<svg
   version="1.1"
   id="svg824"
   xml:space="preserve"
   width="709.54828"
   height="733.08856"
   viewBox="0 0 709.54828 733.08856"
   sodipodi:docname="benchdrill__vectorportal__con atribución.svg"
   inkscape:version="1.1.1 (3bf5ae0d25, 2021-09-20)"
   xmlns:inkscape="http://www.inkscape.org/namespaces/inkscape"
   xmlns:sodipodi="http://sodipodi.sourceforge.net/DTD/sodipodi-0.dtd"
   xmlns="http://www.w3.org/2000/svg"
   xmlns:svg="http://www.w3.org/2000/svg"><defs
     id="defs828" /><sodipodi:namedview
     id="namedview826"
     pagecolor="#ffffff"
     bordercolor="#666666"
     borderopacity="1.0"
     inkscape:pageshadow="2"
     inkscape:pageopacity="0.0"
     inkscape:pagecheckerboard="0"
     showgrid="false"
     inkscape:zoom="1.0463304"
     inkscape:cx="335.45808"
     inkscape:cy="-11.946513"
     inkscape:window-width="1366"
     inkscape:window-height="705"
     inkscape:window-x="-8"
     inkscape:window-y="-8"
     inkscape:window-maximized="1"
     inkscape:current-layer="g830"
     fit-margin-left="1"
     fit-margin-top="1"
     fit-margin-right="1"
     fit-margin-bottom="1" /><g
     id="g830"
     inkscape:groupmode="layer"
     inkscape:label="ink_ext_XXXXXX"
     transform="matrix(1.3333333,0,0,-1.3333333,-88.425064,812.06053)"><path
       d="m 433.488,294.316 h 4.391 v -28.822 l -2.194,-2.194 h -0.002 l -2.195,2.194 v 28.822"
       style="fill:#e8e8e7;fill-opacity:1;fill-rule:evenodd;stroke:none;stroke-width:0.1"
       id="path990" /><path
       d="m 419.352,317.648 h 32.664 V 293.496 L 441.86,283.339 h -12.353 l -10.155,10.157 v 24.152"
       style="fill:#7a7c7d;fill-opacity:1;fill-rule:evenodd;stroke:none;stroke-width:0.1"
       id="path992" /><path
       d="m 414.48,312.572 h 42.407 v 20.037 H 414.48 v -20.037"
       style="fill:#1c1a19;fill-opacity:1;fill-rule:evenodd;stroke:none;stroke-width:0.1"
       id="path994" /><path
       d="m 414.48,312.572 h 42.407 v 20.037 H 414.48 Z"
       style="fill:none;stroke:#100f0d;stroke-width:1.03735;stroke-linecap:butt;stroke-linejoin:miter;stroke-miterlimit:22.9256;stroke-dasharray:none;stroke-opacity:1"
       id="path996" /><path
       d="M 497.271,81.8742 H 597.73 V 61.0129 H 497.271 Z m -397.4468,0 H 200.284 V 61.0129 H 99.8242 v 20.8613 0"
       style="fill:#396d2d;fill-opacity:1;fill-rule:evenodd;stroke:none;stroke-width:0.1"
       id="path998" /><path
       d="m 224.189,211.313 c 2.472,1.433 5.639,0.588 7.071,-1.884 1.432,-2.473 0.588,-5.639 -1.884,-7.073 l -33.361,-19.284 c -2.473,-1.432 -5.64,-0.587 -7.072,1.885 -1.432,2.473 -0.588,5.639 1.884,7.071 l 33.362,19.285"
       style="fill:#100f0d;fill-opacity:1;fill-rule:evenodd;stroke:none;stroke-width:0.1"
       id="path1000" /><path
       d="m 225.738,217.677 h 23.849 v -21.686 h -23.849 c -5.963,0 -10.842,4.879 -10.842,10.844 v 0 c 0,5.963 4.879,10.842 10.842,10.842"
       style="fill:#559d33;fill-opacity:1;fill-rule:evenodd;stroke:none;stroke-width:0.1"
       id="path1002" /><path
       d="m 385.07,436.327 -103.633,151.097 12.832,8.801 103.633,-151.096 -12.832,-8.802"
       style="fill:#cdcccb;fill-opacity:1;fill-rule:evenodd;stroke:none;stroke-width:0.1"
       id="path1004" /><path
       d="m 349.536,491.887 -59.383,86.581 3.62,2.483 59.385,-86.58 -3.622,-2.484"
       style="fill:#e8e8e7;fill-opacity:1;fill-rule:evenodd;stroke:none;stroke-width:0.1"
       id="path1006" /><path
       d="m 274.27,582.509 c -5.144,7.501 -3.235,17.753 4.266,22.897 7.502,5.145 17.754,3.234 22.897,-4.266 5.146,-7.501 3.236,-17.752 -4.266,-22.898 -7.501,-5.143 -17.752,-3.234 -22.897,4.267"
       style="fill:#ec421e;fill-opacity:1;fill-rule:evenodd;stroke:none;stroke-width:0.1"
       id="path1008" /><path
       d="m 278.407,580.479 c -2.444,3.563 -1.066,7.748 3.076,9.347 4.144,1.599 9.484,0.007 11.928,-3.557 2.444,-3.564 1.067,-7.748 -3.077,-9.347 -4.143,-1.599 -9.483,-0.006 -11.927,3.557"
       style="fill:#f14e2c;fill-opacity:1;fill-rule:evenodd;stroke:none;stroke-width:0.1"
       id="path1010" /><path
       d="m 272.347,597.379 c 1.127,3.152 3.219,5.99 6.189,8.027 7.502,5.145 17.752,3.235 22.897,-4.266 3.722,-5.425 3.753,-12.288 0.647,-17.619 1.717,4.807 1.185,10.34 -1.923,14.87 -5.146,7.501 -15.396,9.412 -22.897,4.267 -2.077,-1.424 -3.724,-3.24 -4.913,-5.279"
       style="fill:#de3a21;fill-opacity:1;fill-rule:evenodd;stroke:none;stroke-width:0.1"
       id="path1012" /><path
       d="m 273.735,586.441 c 1.422,-2.072 3.979,-2.201 5.714,-0.289 1.734,1.913 1.989,5.142 0.569,7.214 -1.422,2.071 -3.979,2.2 -5.714,0.288 -1.736,-1.912 -1.99,-5.142 -0.569,-7.213"
       style="fill:#f9a795;fill-opacity:1;fill-rule:evenodd;stroke:none;stroke-width:0.1"
       id="path1014" /><path
       d="m 278.678,597.14 c -1.03,1.501 -0.472,3.673 1.247,4.852 1.719,1.179 3.947,0.918 4.976,-0.583 1.03,-1.5 0.47,-3.67 -1.249,-4.85 -1.718,-1.178 -3.947,-0.919 -4.974,0.581"
       style="fill:#f9a795;fill-opacity:1;fill-rule:evenodd;stroke:none;stroke-width:0.1"
       id="path1016" /><path
       d="m 390.883,448.485 182.672,14.201 1.206,-15.514 -182.671,-14.201 -1.207,15.514"
       style="fill:#cdcccb;fill-opacity:1;fill-rule:evenodd;stroke:none;stroke-width:0.1"
       id="path1018" /><path
       d="m 456.767,451.477 104.671,8.138 0.342,-4.379 -104.674,-8.137 -0.339,4.378"
       style="fill:#e8e8e7;fill-opacity:1;fill-rule:evenodd;stroke:none;stroke-width:0.1"
       id="path1020" /><path
       d="m 572.881,471.348 c 9.067,0.706 16.99,-6.074 17.696,-15.142 0.704,-9.069 -6.076,-16.991 -15.144,-17.696 -9.068,-0.706 -16.991,6.074 -17.695,15.143 -0.706,9.068 6.074,16.99 15.143,17.695"
       style="fill:#ec421e;fill-opacity:1;fill-rule:evenodd;stroke:none;stroke-width:0.1"
       id="path1022" /><path
       d="m 569.053,468.781 c 4.308,0.335 7.245,-2.95 6.558,-7.338 -0.688,-4.388 -4.737,-8.216 -9.044,-8.551 -4.308,-0.335 -7.244,2.951 -6.558,7.338 0.688,4.388 4.736,8.216 9.044,8.551"
       style="fill:#f14e2c;fill-opacity:1;fill-rule:evenodd;stroke:none;stroke-width:0.1"
       id="path1024" /><path
       d="m 586.719,465.579 c 2.166,-2.551 3.58,-5.782 3.858,-9.373 0.704,-9.069 -6.076,-16.991 -15.144,-17.696 -6.559,-0.511 -12.516,2.894 -15.579,8.25 3.302,-3.89 8.361,-6.197 13.838,-5.77 9.069,0.705 15.849,8.627 15.143,17.696 -0.195,2.51 -0.943,4.844 -2.116,6.893"
       style="fill:#de3a21;fill-opacity:1;fill-rule:evenodd;stroke:none;stroke-width:0.1"
       id="path1026" /><path
       d="m 576.553,469.846 c -2.505,-0.194 -3.896,-2.345 -3.108,-4.803 0.79,-2.458 3.46,-4.294 5.963,-4.099 2.506,0.194 3.896,2.345 3.108,4.803 -0.789,2.459 -3.459,4.294 -5.963,4.099"
       style="fill:#f9a795;fill-opacity:1;fill-rule:evenodd;stroke:none;stroke-width:0.1"
       id="path1028" /><path
       d="m 583.349,460.218 c 1.813,0.14 3.415,-1.43 3.576,-3.508 0.162,-2.077 -1.178,-3.877 -2.991,-4.018 -1.815,-0.141 -3.415,1.429 -3.577,3.508 -0.161,2.077 1.178,3.876 2.992,4.018"
       style="fill:#f9a795;fill-opacity:1;fill-rule:evenodd;stroke:none;stroke-width:0.1"
       id="path1030" /><path
       d="m 398.506,437.371 -79.037,-165.297 -14.038,6.712 79.035,165.298 14.04,-6.713"
       style="fill:#cdcccb;fill-opacity:1;fill-rule:evenodd;stroke:none;stroke-width:0.1"
       id="path1032" /><path
       d="m 387.644,419.44 -64.777,-135.34 -3.963,1.894 64.778,135.341 3.962,-1.895"
       style="fill:#e8e8e7;fill-opacity:1;fill-rule:evenodd;stroke:none;stroke-width:0.1"
       id="path1034" /><path
       d="m 327.308,268.325 c -3.924,-8.206 -13.758,-11.677 -21.963,-7.754 -8.206,3.924 -11.677,13.758 -7.754,21.964 3.924,8.205 13.758,11.676 21.964,7.751 8.205,-3.922 11.675,-13.756 7.753,-21.961"
       style="fill:#ec421e;fill-opacity:1;fill-rule:evenodd;stroke:none;stroke-width:0.1"
       id="path1036" /><path
       d="m 326.997,272.925 c -1.863,-3.9 -6.176,-4.8 -9.632,-2.011 -3.458,2.789 -4.748,8.209 -2.884,12.106 1.864,3.9 6.178,4.8 9.634,2.011 3.455,-2.79 4.746,-8.21 2.882,-12.106"
       style="fill:#f14e2c;fill-opacity:1;fill-rule:evenodd;stroke:none;stroke-width:0.1"
       id="path1038" /><path
       d="m 315.391,259.225 c -3.291,-0.6 -6.796,-0.207 -10.046,1.346 -8.206,3.924 -11.677,13.758 -7.754,21.964 2.838,5.935 8.766,9.392 14.935,9.367 -5.021,-0.915 -9.546,-4.144 -11.916,-9.099 -3.923,-8.208 -0.453,-18.04 7.754,-21.964 2.272,-1.084 4.668,-1.605 7.027,-1.614"
       style="fill:#de3a21;fill-opacity:1;fill-rule:evenodd;stroke:none;stroke-width:0.1"
       id="path1040" /><path
       d="m 324.17,265.896 c 1.083,2.268 -0.084,4.548 -2.607,5.093 -2.523,0.545 -5.447,-0.849 -6.532,-3.115 -1.083,-2.266 0.084,-4.546 2.608,-5.093 2.525,-0.547 5.448,0.849 6.531,3.115"
       style="fill:#f9a795;fill-opacity:1;fill-rule:evenodd;stroke:none;stroke-width:0.1"
       id="path1042" /><path
       d="m 312.434,264.826 c -0.786,-1.641 -2.946,-2.245 -4.826,-1.344 -1.881,0.899 -2.769,2.959 -1.985,4.6 0.784,1.639 2.945,2.24 4.827,1.344 1.88,-0.902 2.768,-2.96 1.984,-4.6"
       style="fill:#f9a795;fill-opacity:1;fill-rule:evenodd;stroke:none;stroke-width:0.1"
       id="path1044" /><path
       d="m 410.02,329.7 h 46.662 v 66.424 H 410.02 V 329.7"
       style="fill:#1c1a19;fill-opacity:1;fill-rule:evenodd;stroke:none;stroke-width:0.1"
       id="path1046" /><path
       d="m 139.104,461.04 h 57.091 v 57.092 H 139.104 V 461.04"
       style="fill:#100f0d;fill-opacity:1;fill-rule:evenodd;stroke:none;stroke-width:0.1"
       id="path1048" /><path
       d="m 139.104,498.643 h 57.091 c 6.341,0 11.529,-5.189 11.529,-11.529 v -65.737 l 3.706,-3.98 v -39.8 c 0,-8.454 -6.917,-15.371 -15.371,-15.371 h -56.818 c -8.454,0 -15.37,6.917 -15.37,15.371 v 39.8 l 3.705,3.98 v 65.737 c 0,6.341 5.187,11.529 11.528,11.529"
       style="fill:#363535;fill-opacity:1;fill-rule:evenodd;stroke:none;stroke-width:0.1"
       id="path1050" /><path
       d="m 243.816,518.132 h 37.878 c 67.324,0 130.737,1.646 197.624,1.646 V 386.93 h -87.833 v 11.708 c 0,6.476 -3.882,11.988 -9.98,14.168 -8.342,2.983 -14.957,9.598 -17.94,17.94 -2.179,6.098 -7.692,9.982 -14.169,9.982 h -41.9 v -34.036 h -63.68 v 111.44"
       style="fill:#448733;fill-opacity:1;fill-rule:evenodd;stroke:none;stroke-width:0.1"
       id="path1052" /><path
       d="M 84.5273,504.408 H 515.897 l 40.515,26.924 -267.581,25.801 -221.7622,-25.801 17.4585,-26.924"
       style="fill:#1c1a19;fill-opacity:1;fill-rule:evenodd;stroke:none;stroke-width:0.1"
       id="path1054" /><path
       d="M 84.5273,590.914 H 515.897 l 40.515,-59.582 H 67.0688 l 17.4585,59.582"
       style="fill:#363535;fill-opacity:1;fill-rule:evenodd;stroke:none;stroke-width:0.1"
       id="path1056" /><path
       d="m 391.485,416.025 c 13.607,0 24.703,11.097 24.703,24.703 0,13.606 -11.096,24.703 -24.703,24.703 -13.606,0 -24.703,-11.097 -24.703,-24.703 0,-13.606 11.097,-24.703 24.703,-24.703"
       style="fill:#2f2d2d;fill-opacity:1;fill-rule:evenodd;stroke:none;stroke-width:0.1"
       id="path1058" /><path
       d="m 243.815,492.879 h 235.503 v 11.529 H 243.815 v -11.529"
       style="fill:#3a722e;fill-opacity:1;fill-rule:evenodd;stroke:none;stroke-width:0.1"
       id="path1060" /><path
       d="m 115.5,430.847 h 18.664 v 47.21 H 115.5 v -47.21"
       style="fill:#1c1a19;fill-opacity:1;fill-rule:evenodd;stroke:none;stroke-width:0.1"
       id="path1062" /><path
       d="m 167.65,498.643 h 14.274 V 362.226 H 167.65 Z m -23.605,0 h 20.038 V 362.226 h -20.038 v 136.417 0"
       style="fill:#4d4d4f;fill-opacity:1;fill-rule:evenodd;stroke:none;stroke-width:0.1"
       id="path1064" /><path
       d="m 406.862,376.499 h 54.074 v -4.53 h -54.074 z m 0,-7.136 h 54.074 v -4.529 h -54.074 z m 0,14.273 h 54.074 v -4.529 h -54.074 v 4.529 0"
       style="fill:#464648;fill-opacity:1;fill-rule:evenodd;stroke:none;stroke-width:0.1"
       id="path1066" /><path
       d="m 403.156,324.347 h 65.053 v 28.205 h -65.053 v -28.205"
       style="fill:#ec421e;fill-opacity:1;fill-rule:evenodd;stroke:none;stroke-width:0.1"
       id="path1068" /><path
       d="m 398.903,348.227 h 74.658 v 11.254 h -74.658 v -11.254"
       style="fill:#f25130;fill-opacity:1;fill-rule:evenodd;stroke:none;stroke-width:0.1"
       id="path1070" /><path
       d="m 403.156,345.62 h 65.053 v 2.607 h -65.053 v -2.607"
       style="fill:#de3a21;fill-opacity:1;fill-rule:evenodd;stroke:none;stroke-width:0.1"
       id="path1072" /><path
       d="m 251.501,121.507 h 48.31 v 285.186 h -48.31 V 121.507"
       style="fill:#cdcccb;fill-opacity:1;fill-rule:evenodd;stroke:none;stroke-width:0.1"
       id="path1074" /><path
       d="m 287.328,406.692 h 8.783 V 121.507 h -8.783 z m -29.096,0 h 17.424 V 121.507 h -17.424 v 285.185 0"
       style="fill:#b2b1b0;fill-opacity:1;fill-rule:evenodd;stroke:none;stroke-width:0.1"
       id="path1076" /><path
       d="m 391.485,454.452 5.944,-3.431 5.943,-3.431 v -13.724 l -5.943,-3.431 -5.944,-3.431 -5.941,3.431 -5.943,3.431 v 6.862 6.862 l 5.943,3.431 5.941,3.431"
       style="fill:#e8e8e7;fill-opacity:1;fill-rule:evenodd;stroke:none;stroke-width:0.1"
       id="path1078" /><path
       d="m 391.485,432.149 c 4.725,0 8.579,3.854 8.579,8.579 0,4.724 -3.854,8.577 -8.579,8.577 -4.722,0 -8.577,-3.853 -8.577,-8.577 0,-4.725 3.855,-8.579 8.577,-8.579"
       style="fill:#2f2d2d;fill-opacity:1;fill-rule:evenodd;stroke:none;stroke-width:0.1"
       id="path1080" /><path
       d="m 238.912,173.897 h 74.658 v 65.875 h -74.658 v -65.875"
       style="fill:#448733;fill-opacity:1;fill-rule:evenodd;stroke:none;stroke-width:0.1"
       id="path1082" /><path
       d="m 303.141,186.249 h 237.7 v 41.172 h -237.7 v -41.172"
       style="fill:#559d33;fill-opacity:1;fill-rule:evenodd;stroke:none;stroke-width:0.1"
       id="path1084" /><path
       d="m 223.259,214.583 4.235,-0.41 4.236,-0.413 1.762,-3.872 1.761,-3.875 -2.474,-3.463 -2.474,-3.463 -4.235,0.413 -4.236,0.41 -1.761,3.873 -1.761,3.874 2.473,3.463 2.474,3.463"
       style="fill:#e8e8e7;fill-opacity:1;fill-rule:evenodd;stroke:none;stroke-width:0.1"
       id="path1086" /><path
       d="m 224.58,211.678 c 2.675,1.214 5.828,0.034 7.045,-2.642 1.216,-2.673 0.033,-5.827 -2.641,-7.044 -2.673,-1.215 -5.828,-0.034 -7.044,2.642 -1.215,2.672 -0.034,5.829 2.64,7.044"
       style="fill:#2f2d2d;fill-opacity:1;fill-rule:evenodd;stroke:none;stroke-width:0.1"
       id="path1088" /><path
       d="M 119.038,78.0301 H 578.515 V 129.633 H 119.038 V 78.0301"
       style="fill:#448733;fill-opacity:1;fill-rule:evenodd;stroke:none;stroke-width:0.1"
       id="path1090" /><text
       xml:space="preserve"
       style="font-size:12px;line-height:1.25;font-family:Carlito;-inkscape-font-specification:Carlito;letter-spacing:0px;word-spacing:0px;stroke-width:0.75"
       x="202.27129"
       y="-61.912563"
       id="text3113"
       transform="scale(1,-1)"><tspan
         sodipodi:role="line"
         id="tspan3111"
         style="font-size:12px;stroke-width:0.75"
         x="202.27129"
         y="-61.912563">Created by vectorportal.com</tspan></text></g></svg>
